HIERARCHY
ROOT hip
{
  OFFSET 0 0 0
  CHANNELS 6 Xposition Yposition Zposition Zrotation Yrotation Xrotation
  JOINT abdomen
  {
    OFFSET 0 20.6881 -0.73152
    CHANNELS 3 Zrotation Xrotation Yrotation
    JOINT chest
    {
      OFFSET 0 11.7043 -0.48768
      CHANNELS 3 Zrotation Xrotation Yrotation
      JOINT neck
      {
        OFFSET 0 22.1894 -2.19456
        CHANNELS 3 Zrotation Xrotation Yrotation
        JOINT head
        {
          OFFSET -0.24384 7.07133 1.2192
          CHANNELS 3 Zrotation Xrotation Yrotation
          JOINT leftEye
          {
            OFFSET 4.14528 8.04674 8.04672
            CHANNELS 3 Zrotation Xrotation Yrotation
            End Site
            {
              OFFSET 1 0 0
            }
          }
          JOINT rightEye
          {
            OFFSET -3.6576 8.04674 8.04672
            CHANNELS 3 Zrotation Xrotation Yrotation
            End Site
            {
              OFFSET 1 0 0
            }
          }
        }
      }
      JOINT rCollar
      {
        OFFSET -2.68224 19.2634 -4.8768
        CHANNELS 3 Zrotation Xrotation Yrotation
        JOINT rShldr
        {
          OFFSET -8.77824 -1.95073 1.46304
          CHANNELS 3 Zrotation Xrotation Yrotation
          JOINT rForeArm
          {
            OFFSET -28.1742 -1.7115 0.48768
            CHANNELS 3 Zrotation Xrotation Yrotation
            JOINT rHand
            {
              OFFSET -22.5879 0.773209 7.07136
              CHANNELS 3 Zrotation Xrotation Yrotation
              JOINT rThumb1
              {
                OFFSET -1.2192 -0.487915 3.41376
                CHANNELS 3 Zrotation Xrotation Yrotation
                JOINT rThumb2
                {
                  OFFSET -3.37035 -0.52449 3.41376
                  CHANNELS 3 Zrotation Xrotation Yrotation
                  End Site
                  {
                    OFFSET -1.78271 -1.18214 1.43049
                  }
                }
              }
              JOINT rIndex1
              {
                OFFSET -7.75947 0.938293 5.60832
                CHANNELS 3 Zrotation Xrotation Yrotation
                JOINT rIndex2
                {
                  OFFSET -2.54057 -0.884171 1.56538
                  CHANNELS 3 Zrotation Xrotation Yrotation
                  End Site
                  {
                    OFFSET -1.62519 -0.234802 1.16502
                  }
                }
              }
              JOINT rMid1
              {
                OFFSET -8.24714 1.18213 3.41376
                CHANNELS 3 Zrotation Xrotation Yrotation
                JOINT rMid2
                {
                  OFFSET -3.10165 -0.590103 1.0647
                  CHANNELS 3 Zrotation Xrotation Yrotation
                  End Site
                  {
                    OFFSET -2.48547 -0.328903 0.83742
                  }
                }
              }
              JOINT rRing1
              {
                OFFSET -8.82822 0.546677 1.51678
                CHANNELS 3 Zrotation Xrotation Yrotation
                JOINT rRing2
                {
                  OFFSET -2.60934 -0.819778 -0.0198488
                  CHANNELS 3 Zrotation Xrotation Yrotation
                  End Site
                  {
                    OFFSET -2.33842 -0.294052 0.168128
                  }
                }
              }
              JOINT rPinky1
              {
                OFFSET -8.27202 -0.0477905 -0.4584
                CHANNELS 3 Zrotation Xrotation Yrotation
                JOINT rPinky2
                {
                  OFFSET -1.82734 -0.647385 -0.700984
                  CHANNELS 3 Zrotation Xrotation Yrotation
                  End Site
                  {
                    OFFSET -1.69225 -0.51767 -0.607171
                  }
                }
              }
            }
          }
        }
      }
      JOINT lCollar
      {
        OFFSET 2.68224 19.2634 -4.8768
        CHANNELS 3 Zrotation Xrotation Yrotation
        JOINT lShldr
        {
          OFFSET 8.77824 -1.95073 1.46304
          CHANNELS 3 Zrotation Xrotation Yrotation
          JOINT lForeArm
          {
            OFFSET 28.1742 -1.7115 0.48768
            CHANNELS 3 Zrotation Xrotation Yrotation
            JOINT lHand
            {
              OFFSET 22.5879 0.773209 7.07136
              CHANNELS 3 Zrotation Xrotation Yrotation
              JOINT lThumb1
              {
                OFFSET 1.2192 -0.487915 3.41376
                CHANNELS 3 Zrotation Xrotation Yrotation
                JOINT lThumb2
                {
                  OFFSET 3.37035 -0.52449 3.41376
                  CHANNELS 3 Zrotation Xrotation Yrotation
                  End Site
                  {
                    OFFSET 1.78271 -1.18214 1.43049
                  }
                }
              }
              JOINT lIndex1
              {
                OFFSET 7.75947 0.938293 5.60832
                CHANNELS 3 Zrotation Xrotation Yrotation
                JOINT lIndex2
                {
                  OFFSET 2.54057 -0.884171 1.56538
                  CHANNELS 3 Zrotation Xrotation Yrotation
                  End Site
                  {
                    OFFSET 1.62519 -0.234802 1.16502
                  }
                }
              }
              JOINT lMid1
              {
                OFFSET 8.24714 1.18213 3.41376
                CHANNELS 3 Zrotation Xrotation Yrotation
                JOINT lMid2
                {
                  OFFSET 3.10165 -0.590103 1.0647
                  CHANNELS 3 Zrotation Xrotation Yrotation
                  End Site
                  {
                    OFFSET 2.48547 -0.328903 0.83742
                  }
                }
              }
              JOINT lRing1
              {
                OFFSET 8.82822 0.546677 1.51678
                CHANNELS 3 Zrotation Xrotation Yrotation
                JOINT lRing2
                {
                  OFFSET 2.60934 -0.819778 -0.0198488
                  CHANNELS 3 Zrotation Xrotation Yrotation
                  End Site
                  {
                    OFFSET 2.33842 -0.294052 0.168128
                  }
                }
              }
              JOINT lPinky1
              {
                OFFSET 8.27202 -0.0477905 -0.4584
                CHANNELS 3 Zrotation Xrotation Yrotation
                JOINT lPinky2
                {
                  OFFSET 1.82734 -0.647385 -0.700984
                  CHANNELS 3 Zrotation Xrotation Yrotation
                  End Site
                  {
                    OFFSET 1.69225 -0.51767 -0.607171
                  }
                }
              }
            }
          }
        }
      }
    }
  }
  JOINT rButtock
  {
    OFFSET -8.77824 4.35084 1.2192
    CHANNELS 3 Zrotation Xrotation Yrotation
    JOINT rThigh
    {
      OFFSET 0 -1.70687 -2.19456
      CHANNELS 3 Zrotation Xrotation Yrotation
      JOINT rShin
      {
        OFFSET 0 -36.8199 0.73152
        CHANNELS 3 Zrotation Xrotation Yrotation
        JOINT rFoot
        {
          OFFSET 0.73152 -45.1104 -5.12064
          CHANNELS 3 Zrotation Xrotation Yrotation
          End Site
          {
            OFFSET -1.1221 -3.69964 12.103
          }
        }
      }
    }
  }
  JOINT lButtock
  {
    OFFSET 8.77824 4.35084 1.2192
    CHANNELS 3 Zrotation Xrotation Yrotation
    JOINT lThigh
    {
      OFFSET 0 -1.70687 -2.19456
      CHANNELS 3 Zrotation Xrotation Yrotation
      JOINT lShin
      {
        OFFSET 0 -36.8199 0.73152
        CHANNELS 3 Zrotation Xrotation Yrotation
        JOINT lFoot
        {
          OFFSET -0.73152 -45.1104 -5.12064
          CHANNELS 3 Zrotation Xrotation Yrotation
          End Site
          {
            OFFSET 1.1221 -3.69964 12.103
          }
        }
      }
    }
  }
}
MOTION
Frames:	8
Frame Time:	0.00833333
53.8711 83.0464 187.784 178.33 -2.9986 -154.639 -6.01259 -24.3806 -3.52736 2.79244 14.0156 -1.16084 4.98372 7.26602 -2.38838 -8.57935 -11.5778 -7.02581 -0.0 0.0 0.0 -0.0 0.0 0.0 2.12022e-15 -3.15122e-13 7.72977e-14 82.5494 6.34507 -3.49052 -11.9795 -5.43433 21.57 -0.0207922 4.11763 0.579699 -4.35273e-10 -8.92247e-10 3.39086e-09 -7.37723e-10 -1.54164e-09 5.86348e-09 -4.35267e-10 -8.92247e-10 3.39085e-09 7.73091 5.47488 0.417314 -4.35275e-10 -8.92247e-10 3.39087e-09 2.90554 0.965183 0.102902 -4.35271e-10 -8.92247e-10 3.39087e-09 10.2786 0.731801 0.0259123 -4.35279e-10 -8.92246e-10 3.39088e-09 2.22167 -0.733487 -0.20892 2.09518e-15 -3.15125e-13 7.70772e-14 -73.6576 24.85 -2.82268 11.2172 -4.91449 -20.1047 0.0389603 5.62258 -0.792776 1.13483e-09 -1.34714e-09 -2.66698e-09 1.94535e-09 -2.33536e-09 -4.61509e-09 1.13483e-09 -1.34713e-09 -2.66697e-09 -7.73091 5.47488 -0.417314 1.13483e-09 -1.34714e-09 -2.66699e-09 -2.90554 0.965183 -0.102902 1.13483e-09 -1.34714e-09 -2.66698e-09 -10.2786 0.731801 -0.0259123 1.13483e-09 -1.34714e-09 -2.66699e-09 -2.22167 -0.733487 0.20892 -2.03217e-16 0.0 -3.88251e-19 3.52514 -31.6289 10.0086 -0.00583522 13.9333 0.330515 -4.74115 -17.3895 -12.1753 2.03217e-16 0.0 3.88251e-19 -5.08558 -32.0133 -12.6936 0.0479394 13.2155 -0.175521 0.863005 -5.80098 2.35274
53.9002 83.0347 187.867 178.456 -2.8905 -154.374 -5.90773 -24.3118 -3.43629 2.78512 13.9546 -1.13982 4.96089 7.3007 -2.40231 -8.56497 -11.6017 -7.04895 -0.0 0.0 0.0 -0.0 0.0 0.0 1.56268e-15 -2.8784e-13 4.10552e-14 82.5066 6.40813 -3.88335 -12.0396 -5.47657 21.6862 -0.0191707 3.95649 0.556938 -9.03557e-11 -1.00425e-09 2.83053e-09 -1.43716e-10 -1.7359e-09 4.89294e-09 -9.03465e-11 -1.00425e-09 2.83051e-09 7.73091 5.47488 0.417314 -9.03577e-11 -1.00425e-09 2.83053e-09 2.90554 0.965183 0.102902 -9.03534e-11 -1.00425e-09 2.83053e-09 10.2786 0.731801 0.0259123 -9.0362e-11 -1.00425e-09 2.83054e-09 2.22167 -0.733487 -0.20892 1.5217e-15 -2.87841e-13 4.08813e-14 -73.6233 25.0551 -2.54707 11.2313 -4.92387 -20.1317 0.0376697 5.52926 -0.779534 1.25502e-09 -9.97914e-10 -2.15907e-09 2.15608e-09 -1.73055e-09 -3.73753e-09 1.25502e-09 -9.97911e-10 -2.15906e-09 -7.73091 5.47488 -0.417314 1.25501e-09 -9.97914e-10 -2.15908e-09 -2.90554 0.965183 -0.102902 1.25501e-09 -9.97913e-10 -2.15907e-09 -10.2786 0.731801 -0.0259123 1.25502e-09 -9.97913e-10 -2.15908e-09 -2.22167 -0.733487 0.20892 -2.03217e-16 0.0 -3.88251e-19 3.60825 -31.9868 10.089 -0.00596035 14.0646 0.333296 -4.75167 -17.4135 -12.1767 2.03217e-16 0.0 3.88251e-19 -5.05101 -32.3358 -12.6733 0.0482869 13.2947 -0.176805 0.87904 -5.83365 2.44303
53.9095 83.0272 187.91 178.487 -2.8358 -154.228 -5.81027 -24.2373 -3.36624 2.78482 13.8946 -1.12513 4.93168 7.33621 -2.4144 -8.54629 -11.6301 -7.06708 -0.0 0.0 0.0 -0.0 0.0 0.0 2.78359e-15 -2.24776e-13 3.74273e-16 82.4545 6.443 -4.26994 -12.0959 -5.5162 21.7956 -0.0177946 3.80849 0.536043 3.03399e-10 -1.02432e-09 1.95055e-09 5.33407e-10 -1.77137e-09 3.3697e-09 3.0341e-10 -1.02432e-09 1.95054e-09 7.73091 5.47488 0.417314 3.03397e-10 -1.02432e-09 1.95055e-09 2.90554 0.965183 0.102902 3.03402e-10 -1.02432e-09 1.95055e-09 10.2786 0.731801 0.0259123 3.03392e-10 -1.02432e-09 1.95056e-09 2.22167 -0.733487 -0.20892 2.7216e-15 -2.24776e-13 2.4693e-16 -73.6042 25.2575 -2.26599 11.2503 -4.93652 -20.168 0.0363702 5.43352 -0.765955 1.24072e-09 -5.22207e-10 -1.41076e-09 2.13582e-09 -9.06481e-10 -2.44389e-09 1.24071e-09 -5.22208e-10 -1.41075e-09 -7.73091 5.47488 -0.417314 1.24072e-09 -5.2221e-10 -1.41077e-09 -2.90554 0.965183 -0.102902 1.24071e-09 -5.2221e-10 -1.41076e-09 -10.2786 0.731801 -0.0259123 1.24072e-09 -5.22211e-10 -1.41077e-09 -2.22167 -0.733487 0.20892 -2.03217e-16 0.0 -3.88251e-19 3.66773 -32.3664 10.1276 -0.00611837 14.2045 0.336158 -4.75717 -17.4434 -12.1598 2.03217e-16 0.0 3.88251e-19 -5.04674 -32.6799 -12.6898 0.0487677 13.3929 -0.178466 0.898004 -5.87833 2.54749
53.9073 83.0209 187.955 178.444 -2.8298 -154.057 -5.7288 -24.1495 -3.30978 2.79191 13.8859 -1.11387 4.89992 7.347 -2.4229 -8.52088 -11.6617 -7.0766 -0.0 0.0 0.0 -0.0 0.0 0.0 5.85053e-15 -1.49487e-13 -2.10215e-14 82.3902 6.39276 -4.57587 -12.1198 -5.533 21.842 -0.0172662 3.74871 0.527607 5.41613e-10 -8.61595e-10 1.0898e-09 9.41608e-10 -1.49058e-09 1.88062e-09 5.41626e-10 -8.61592e-10 1.08979e-09 7.73091 5.47488 0.417314 5.41611e-10 -8.61592e-10 1.0898e-09 2.90554 0.965183 0.102902 5.41617e-10 -8.61593e-10 1.0898e-09 10.2786 0.731801 0.0259123 5.41607e-10 -8.61591e-10 1.08981e-09 2.22167 -0.733487 -0.20892 5.77874e-15 -1.49485e-13 -2.11209e-14 -73.5852 25.3499 -2.00883 11.2612 -4.94379 -20.1888 0.0361011 5.41522 -0.763356 1.04632e-09 -1.35244e-10 -6.87696e-10 1.80424e-09 -2.35892e-10 -1.19303e-09 1.04631e-09 -1.35248e-10 -6.8769e-10 -7.73091 5.47488 -0.417314 1.04632e-09 -1.35249e-10 -6.877e-10 -2.90554 0.965183 -0.102902 1.04631e-09 -1.3525e-10 -6.87699e-10 -10.2786 0.731801 -0.0259123 1.04632e-09 -1.3525e-10 -6.87709e-10 -2.22167 -0.733487 0.20892 -2.03217e-16 0.0 -3.88251e-19 3.73115 -32.7188 10.1872 -0.00627365 14.3265 0.338641 -4.76046 -17.4739 -12.1404 2.03217e-16 0.0 3.88251e-19 -5.05347 -32.9942 -12.7686 0.0492051 13.4794 -0.180233 0.928164 -5.93898 2.70963
53.9048 83.0174 188.02 178.365 -2.786 -153.836 -5.66098 -24.0449 -3.26992 2.80947 13.9631 -1.10708 4.86556 7.31444 -2.42468 -8.48726 -11.6969 -7.07088 -0.0 0.0 0.0 -0.0 0.0 0.0 1.13711e-14 -4.23424e-14 -1.25413e-14 82.3033 6.20389 -4.74882 -12.0915 -5.51311 21.787 -0.0181219 3.84551 0.541269 5.69741e-10 -3.84135e-10 1.74181e-10 9.86175e-10 -6.65391e-10 2.97995e-10 5.69753e-10 -3.84132e-10 1.74166e-10 7.73091 5.47488 0.417314 5.6974e-10 -3.84133e-10 1.74179e-10 2.90554 0.965183 0.102902 5.69747e-10 -3.84133e-10 1.74176e-10 10.2786 0.731801 0.0259123 5.69735e-10 -3.84132e-10 1.74182e-10 2.22167 -0.733487 -0.20892 1.13081e-14 -4.23404e-14 -1.26391e-14 -73.5662 25.2401 -1.80206 11.2532 -4.9385 -20.1737 0.0379532 5.55534 -0.783227 5.5007e-10 1.49788e-10 8.14774e-11 9.51522e-10 2.58573e-10 1.39013e-10 5.50058e-10 1.49783e-10 8.14808e-11 -7.73091 5.47488 -0.417314 5.50066e-10 1.49781e-10 8.14714e-11 -2.90554 0.965183 -0.102902 5.5006e-10 1.49782e-10 8.14739e-11 -10.2786 0.731801 -0.0259123 5.50069e-10 1.49781e-10 8.14618e-11 -2.22167 -0.733487 0.20892 -2.03217e-16 0.0 -3.88251e-19 3.81081 -33.0244 10.2799 -0.00644882 14.4186 0.3404 -4.75689 -17.5036 -12.1078 2.03217e-16 0.0 3.88251e-19 -5.06731 -33.2433 -12.9532 0.0493637 13.5222 -0.181794 0.978728 -6.02189 2.97789
53.9266 83.0146 188.082 178.328 -2.7013 -153.624 -5.60367 -23.928 -3.2489 2.83627 14.0922 -1.10569 4.82691 7.2561 -2.42154 -8.44695 -11.7362 -7.05373 -0.0 0.0 0.0 -0.0 0.0 0.0 1.91128e-14 1.00584e-13 1.17407e-14 82.1978 5.91977 -4.83931 -12.0303 -5.47011 21.6683 -0.0200122 4.04273 0.569117 4.96799e-10 3.23689e-10 -9.22226e-10 8.55138e-10 5.58148e-10 -1.59642e-09 4.96809e-10 3.23691e-10 -9.22241e-10 7.73091 5.47488 0.417314 4.96798e-10 3.2369e-10 -9.2223e-10 2.90554 0.965183 0.102902 4.96807e-10 3.2369e-10 -9.22232e-10 10.2786 0.731801 0.0259123 4.96794e-10 3.23691e-10 -9.22227e-10 2.22167 -0.733487 -0.20892 1.90675e-14 1.00585e-13 1.16289e-14 -73.5516 25.0068 -1.62483 11.2358 -4.92688 -20.1406 0.0413067 5.79139 -0.816737 -1.87167e-10 4.32939e-10 9.91036e-10 -3.16701e-10 7.50125e-10 1.71484e-09 -1.87186e-10 4.32933e-10 9.91035e-10 -7.73091 5.47488 -0.417314 -1.87177e-10 4.32932e-10 9.91025e-10 -2.90554 0.965183 -0.102902 -1.87176e-10 4.32934e-10 9.91031e-10 -10.2786 0.731801 -0.0259123 -1.87167e-10 4.32932e-10 9.91017e-10 -2.22167 -0.733487 0.20892 -2.03217e-16 0.0 -3.88251e-19 3.89022 -33.3113 10.3736 -0.00664625 14.4965 0.341751 -4.74669 -17.5353 -12.0587 2.03217e-16 0.0 3.88251e-19 -5.09995 -33.4609 -13.2186 0.0493987 13.5454 -0.183372 1.04376 -6.123 3.31687
53.9634 83.0094 188.147 178.405 -2.6278 -153.4 -5.56429 -23.8036 -3.23825 2.86625 14.221 -1.10668 4.78531 7.20069 -2.41921 -8.40211 -11.7783 -7.03717 -0.0 0.0 0.0 -0.0 0.0 0.0 2.78829e-14 2.3218e-13 3.8551e-14 82.091 5.62895 -4.92699 -11.9661 -5.42502 21.5442 -0.0219638 4.2287 0.595395 3.63754e-10 1.02832e-09 -1.93825e-09 6.20581e-10 1.77631e-09 -3.35164e-09 3.63761e-10 1.02832e-09 -1.93826e-09 7.73091 5.47488 0.417314 3.63755e-10 1.02832e-09 -1.93825e-09 2.90554 0.965183 0.102902 3.63764e-10 1.02832e-09 -1.93825e-09 10.2786 0.731801 0.0259123 3.6375e-10 1.02832e-09 -1.93825e-09 2.22167 -0.733487 -0.20892 2.78548e-14 2.3218e-13 3.8419e-14 -73.5325 24.7985 -1.43566 11.2261 -4.92044 -20.1221 0.0442752 5.98801 -0.844677 -9.3711e-10 6.68843e-10 1.80974e-09 -1.60754e-09 1.1598e-09 3.13363e-09 -9.37137e-10 6.68838e-10 1.80973e-09 -7.73091 5.47488 -0.417314 -9.37126e-10 6.68837e-10 1.80972e-09 -2.90554 0.965183 -0.102902 -9.37117e-10 6.68839e-10 1.80973e-09 -10.2786 0.731801 -0.0259123 -9.3711e-10 6.68838e-10 1.80972e-09 -2.22167 -0.733487 0.20892 -2.03217e-16 0.0 -3.88251e-19 3.95499 -33.6027 10.4654 -0.00679725 14.5756 0.34323 -4.74018 -17.5701 -12.0195 2.03217e-16 0.0 3.88251e-19 -5.15523 -33.7003 -13.4872 0.0497214 13.6033 -0.185502 1.10849 -6.23092 3.64431
54.0059 83.0029 188.2 178.521 -2.5153 -153.241 -5.55036 -23.6767 -3.22952 2.89328 14.297 -1.10698 4.74204 7.17694 -2.4234 -8.35489 -11.822 -7.0332 -0.0 0.0 0.0 -0.0 0.0 0.0 3.64886e-14 3.05333e-13 5.46161e-14 81.9996 5.41996 -5.09133 -11.9292 -5.39903 21.4729 -0.0226436 4.29174 0.604307 2.11576e-10 1.4962e-09 -2.61271e-09 3.54589e-10 2.58536e-09 -4.51667e-09 2.1158e-10 1.4962e-09 -2.61273e-09 7.73091 5.47488 0.417314 2.11576e-10 1.4962e-09 -2.61272e-09 2.90554 0.965183 0.102902 2.11586e-10 1.4962e-09 -2.61272e-09 10.2786 0.731801 0.0259123 2.11571e-10 1.4962e-09 -2.61272e-09 2.22167 -0.733487 -0.20892 3.64678e-14 3.05333e-13 5.4467e-14 -73.5016 24.7638 -1.1923 11.2414 -4.93068 -20.151 0.0445032 6.00982 -0.847767 -1.47148e-09 8.12136e-10 2.30634e-09 -2.52811e-09 1.40862e-09 3.99454e-09 -1.47151e-09 8.1213e-10 2.30633e-09 -7.73091 5.47488 -0.417314 -1.4715e-09 8.1213e-10 2.30632e-09 -2.90554 0.965183 -0.102902 -1.47148e-09 8.12133e-10 2.30633e-09 -10.2786 0.731801 -0.0259123 -1.47147e-09 8.12132e-10 2.30632e-09 -2.22167 -0.733487 0.20892 -2.03217e-16 0.0 -3.88251e-19 3.99085 -33.9218 10.5522 -0.00683794 14.6713 0.345373 -4.74773 -17.6091 -12.0167 2.03217e-16 0.0 3.88251e-19 -5.23642 -34.0155 -13.6815 0.0507549 13.7497 -0.188721 1.15727 -6.33449 3.87787
